<mxfile host="65bd71144e">
    <diagram id="xqtikBZsjGqVfNbv5qxq" name="Page-1">
        <mxGraphModel dx="737" dy="325" grid="1" gridSize="10" guides="1" tooltips="1" connect="1" arrows="1" fold="1" page="1" pageScale="1" pageWidth="850" pageHeight="1100" math="0" shadow="0">
            <root>
                <mxCell id="0"/>
                <mxCell id="1" parent="0"/>
                <mxCell id="2" value="dmac.v" style="rounded=0;whiteSpace=wrap;html=1;" vertex="1" parent="1">
                    <mxGeometry x="280" y="170" width="80" height="30" as="geometry"/>
                </mxCell>
                <mxCell id="4" value="mips.v" style="rounded=0;whiteSpace=wrap;html=1;" vertex="1" parent="1">
                    <mxGeometry x="160" y="170" width="80" height="30" as="geometry"/>
                </mxCell>
                <mxCell id="6" value="busarb.v" style="rounded=0;whiteSpace=wrap;html=1;" vertex="1" parent="1">
                    <mxGeometry x="340" y="220" width="80" height="30" as="geometry"/>
                </mxCell>
                <mxCell id="9" value="" style="endArrow=none;html=1;entryX=0;entryY=0.5;entryDx=0;entryDy=0;" edge="1" parent="1" target="6">
                    <mxGeometry width="50" height="50" relative="1" as="geometry">
                        <mxPoint x="200" y="235" as="sourcePoint"/>
                        <mxPoint x="290" y="234.58" as="targetPoint"/>
                    </mxGeometry>
                </mxCell>
                <mxCell id="10" value="" style="endArrow=none;html=1;entryX=0.5;entryY=1;entryDx=0;entryDy=0;" edge="1" parent="1" target="4">
                    <mxGeometry width="50" height="50" relative="1" as="geometry">
                        <mxPoint x="200" y="235" as="sourcePoint"/>
                        <mxPoint x="350" y="245" as="targetPoint"/>
                    </mxGeometry>
                </mxCell>
                <mxCell id="11" value="" style="endArrow=none;html=1;entryX=0.5;entryY=1;entryDx=0;entryDy=0;" edge="1" parent="1">
                    <mxGeometry width="50" height="50" relative="1" as="geometry">
                        <mxPoint x="320" y="235" as="sourcePoint"/>
                        <mxPoint x="320" y="200" as="targetPoint"/>
                    </mxGeometry>
                </mxCell>
                <mxCell id="12" value="sram.v" style="rounded=0;whiteSpace=wrap;html=1;" vertex="1" parent="1">
                    <mxGeometry x="240" y="270" width="80" height="30" as="geometry"/>
                </mxCell>
                <mxCell id="13" value="" style="endArrow=none;html=1;entryX=0.5;entryY=1;entryDx=0;entryDy=0;" edge="1" parent="1">
                    <mxGeometry width="50" height="50" relative="1" as="geometry">
                        <mxPoint x="280" y="270" as="sourcePoint"/>
                        <mxPoint x="280" y="235" as="targetPoint"/>
                    </mxGeometry>
                </mxCell>
                <mxCell id="16" value="" style="endArrow=classic;html=1;exitX=1;exitY=0.5;exitDx=0;exitDy=0;entryX=0;entryY=0.5;entryDx=0;entryDy=0;strokeColor=#007FFF;" edge="1" parent="1" source="4" target="2">
                    <mxGeometry width="50" height="50" relative="1" as="geometry">
                        <mxPoint x="280" y="180" as="sourcePoint"/>
                        <mxPoint x="330" y="130" as="targetPoint"/>
                    </mxGeometry>
                </mxCell>
                <mxCell id="17" value="&lt;font color=&quot;#007fff&quot;&gt;MMIO&lt;/font&gt;" style="text;html=1;align=center;verticalAlign=middle;resizable=0;points=[];autosize=1;strokeColor=none;fillColor=none;" vertex="1" parent="1">
                    <mxGeometry x="230" y="182" width="60" height="30" as="geometry"/>
                </mxCell>
            </root>
        </mxGraphModel>
    </diagram>
    <diagram id="994Y_lF6fl5uqDlvDCms" name="Page-2">
        <mxGraphModel dx="1942" dy="940" grid="1" gridSize="10" guides="1" tooltips="1" connect="1" arrows="1" fold="1" page="1" pageScale="1" pageWidth="850" pageHeight="1100" math="0" shadow="0">
            <root>
                <mxCell id="0"/>
                <mxCell id="1" parent="0"/>
                <mxCell id="ubLCiusG5e7ECI12qxUM-21" style="edgeStyle=none;html=1;exitX=1;exitY=0.5;exitDx=0;exitDy=0;entryX=0;entryY=0.5;entryDx=0;entryDy=0;strokeColor=#007FFF;fontSize=18;fontColor=#000000;" edge="1" parent="1" source="ubLCiusG5e7ECI12qxUM-2" target="ubLCiusG5e7ECI12qxUM-4">
                    <mxGeometry relative="1" as="geometry"/>
                </mxCell>
                <mxCell id="ubLCiusG5e7ECI12qxUM-2" value="" style="rounded=0;whiteSpace=wrap;html=1;fontColor=#000000;" vertex="1" parent="1">
                    <mxGeometry x="200" y="280" width="50" height="180" as="geometry"/>
                </mxCell>
                <mxCell id="ubLCiusG5e7ECI12qxUM-3" value="pc" style="text;html=1;align=center;verticalAlign=middle;resizable=0;points=[];autosize=1;strokeColor=none;fillColor=none;fontColor=#000000;fontSize=24;" vertex="1" parent="1">
                    <mxGeometry x="200" y="345" width="50" height="40" as="geometry"/>
                </mxCell>
                <mxCell id="ubLCiusG5e7ECI12qxUM-22" style="edgeStyle=none;html=1;exitX=1;exitY=0.5;exitDx=0;exitDy=0;entryX=0;entryY=0.5;entryDx=0;entryDy=0;strokeColor=#007FFF;fontSize=18;fontColor=#000000;" edge="1" parent="1" source="ubLCiusG5e7ECI12qxUM-4" target="ubLCiusG5e7ECI12qxUM-7">
                    <mxGeometry relative="1" as="geometry"/>
                </mxCell>
                <mxCell id="ubLCiusG5e7ECI12qxUM-4" value="" style="rounded=0;whiteSpace=wrap;html=1;fontColor=#000000;" vertex="1" parent="1">
                    <mxGeometry x="400" y="280" width="50" height="180" as="geometry"/>
                </mxCell>
                <mxCell id="ubLCiusG5e7ECI12qxUM-23" style="edgeStyle=none;html=1;exitX=1;exitY=0.5;exitDx=0;exitDy=0;entryX=0;entryY=0.5;entryDx=0;entryDy=0;strokeColor=#007FFF;fontSize=18;fontColor=#000000;startArrow=none;" edge="1" parent="1" source="ubLCiusG5e7ECI12qxUM-31" target="ubLCiusG5e7ECI12qxUM-11">
                    <mxGeometry relative="1" as="geometry"/>
                </mxCell>
                <mxCell id="ubLCiusG5e7ECI12qxUM-7" value="" style="rounded=0;whiteSpace=wrap;html=1;fontColor=#000000;" vertex="1" parent="1">
                    <mxGeometry x="600" y="280" width="50" height="180" as="geometry"/>
                </mxCell>
                <mxCell id="ubLCiusG5e7ECI12qxUM-24" style="edgeStyle=none;html=1;exitX=1;exitY=0.5;exitDx=0;exitDy=0;entryX=0;entryY=0.5;entryDx=0;entryDy=0;strokeColor=#007FFF;fontSize=18;fontColor=#000000;" edge="1" parent="1" source="ubLCiusG5e7ECI12qxUM-11" target="ubLCiusG5e7ECI12qxUM-15">
                    <mxGeometry relative="1" as="geometry"/>
                </mxCell>
                <mxCell id="ubLCiusG5e7ECI12qxUM-11" value="" style="rounded=0;whiteSpace=wrap;html=1;fontColor=#000000;" vertex="1" parent="1">
                    <mxGeometry x="800" y="280" width="50" height="180" as="geometry"/>
                </mxCell>
                <mxCell id="ubLCiusG5e7ECI12qxUM-25" style="edgeStyle=none;html=1;exitX=1;exitY=0.5;exitDx=0;exitDy=0;entryX=0;entryY=0.5;entryDx=0;entryDy=0;strokeColor=#007FFF;fontSize=18;fontColor=#000000;" edge="1" parent="1" source="ubLCiusG5e7ECI12qxUM-15">
                    <mxGeometry relative="1" as="geometry">
                        <mxPoint x="1200" y="370" as="targetPoint"/>
                    </mxGeometry>
                </mxCell>
                <mxCell id="ubLCiusG5e7ECI12qxUM-15" value="" style="rounded=0;whiteSpace=wrap;html=1;fontColor=#000000;" vertex="1" parent="1">
                    <mxGeometry x="1000" y="280" width="50" height="180" as="geometry"/>
                </mxCell>
                <mxCell id="ubLCiusG5e7ECI12qxUM-26" value="&lt;font style=&quot;font-size: 32px;&quot;&gt;IF&lt;/font&gt;" style="text;html=1;strokeColor=none;fillColor=none;align=center;verticalAlign=middle;whiteSpace=wrap;rounded=0;fontSize=32;fontColor=#000000;" vertex="1" parent="1">
                    <mxGeometry x="300" y="220" width="60" height="30" as="geometry"/>
                </mxCell>
                <mxCell id="ubLCiusG5e7ECI12qxUM-27" value="&lt;font style=&quot;font-size: 32px;&quot;&gt;ID&lt;/font&gt;" style="text;html=1;strokeColor=none;fillColor=none;align=center;verticalAlign=middle;whiteSpace=wrap;rounded=0;fontSize=32;fontColor=#000000;" vertex="1" parent="1">
                    <mxGeometry x="490" y="220" width="60" height="30" as="geometry"/>
                </mxCell>
                <mxCell id="ubLCiusG5e7ECI12qxUM-28" value="&lt;font style=&quot;font-size: 32px;&quot;&gt;EX&lt;/font&gt;" style="text;html=1;strokeColor=none;fillColor=none;align=center;verticalAlign=middle;whiteSpace=wrap;rounded=0;fontSize=32;fontColor=#000000;" vertex="1" parent="1">
                    <mxGeometry x="690" y="220" width="60" height="30" as="geometry"/>
                </mxCell>
                <mxCell id="ubLCiusG5e7ECI12qxUM-29" value="&lt;font style=&quot;font-size: 32px;&quot;&gt;MA&lt;/font&gt;" style="text;html=1;strokeColor=none;fillColor=none;align=center;verticalAlign=middle;whiteSpace=wrap;rounded=0;fontSize=32;fontColor=#000000;" vertex="1" parent="1">
                    <mxGeometry x="890" y="220" width="60" height="30" as="geometry"/>
                </mxCell>
                <mxCell id="ubLCiusG5e7ECI12qxUM-30" value="&lt;font style=&quot;font-size: 32px;&quot;&gt;WB&lt;/font&gt;" style="text;html=1;strokeColor=none;fillColor=none;align=center;verticalAlign=middle;whiteSpace=wrap;rounded=0;fontSize=32;fontColor=#000000;" vertex="1" parent="1">
                    <mxGeometry x="1090" y="220" width="60" height="30" as="geometry"/>
                </mxCell>
                <mxCell id="ubLCiusG5e7ECI12qxUM-32" value="" style="edgeStyle=none;html=1;exitX=1;exitY=0.5;exitDx=0;exitDy=0;entryX=0;entryY=0.5;entryDx=0;entryDy=0;strokeColor=#007FFF;fontSize=18;fontColor=#000000;endArrow=none;" edge="1" parent="1" source="ubLCiusG5e7ECI12qxUM-7" target="ubLCiusG5e7ECI12qxUM-31">
                    <mxGeometry relative="1" as="geometry">
                        <mxPoint x="650" y="370" as="sourcePoint"/>
                        <mxPoint x="800" y="370" as="targetPoint"/>
                    </mxGeometry>
                </mxCell>
                <mxCell id="ubLCiusG5e7ECI12qxUM-31" value="&lt;font style=&quot;font-size: 24px;&quot;&gt;ALU&lt;/font&gt;" style="rounded=0;whiteSpace=wrap;html=1;fontColor=#000000;" vertex="1" parent="1">
                    <mxGeometry x="690" y="335" width="70" height="70" as="geometry"/>
                </mxCell>
                <mxCell id="ubLCiusG5e7ECI12qxUM-33" value="&lt;font style=&quot;font-size: 24px;&quot;&gt;regfile&lt;/font&gt;" style="rounded=0;whiteSpace=wrap;html=1;fontColor=#000000;" vertex="1" parent="1">
                    <mxGeometry x="480" y="470" width="80" height="60" as="geometry"/>
                </mxCell>
                <mxCell id="ubLCiusG5e7ECI12qxUM-34" style="edgeStyle=none;html=1;entryX=0.5;entryY=0;entryDx=0;entryDy=0;strokeColor=#007FFF;fontSize=18;fontColor=#000000;" edge="1" parent="1" target="ubLCiusG5e7ECI12qxUM-33">
                    <mxGeometry relative="1" as="geometry">
                        <mxPoint x="520" y="370" as="sourcePoint"/>
                        <mxPoint x="610" y="380" as="targetPoint"/>
                    </mxGeometry>
                </mxCell>
                <mxCell id="ubLCiusG5e7ECI12qxUM-35" style="edgeStyle=none;html=1;strokeColor=#007FFF;fontSize=18;fontColor=#000000;" edge="1" parent="1">
                    <mxGeometry relative="1" as="geometry">
                        <mxPoint x="1130" y="370" as="sourcePoint"/>
                        <mxPoint x="560" y="500" as="targetPoint"/>
                        <Array as="points">
                            <mxPoint x="1130" y="500"/>
                        </Array>
                    </mxGeometry>
                </mxCell>
            </root>
        </mxGraphModel>
    </diagram>
</mxfile>